<mxfile host="app.diagrams.net" agent="Mozilla/5.0 (Windows NT 10.0; Win64; x64) AppleWebKit/537.36 (KHTML, like Gecko) Chrome/131.0.0.0 Safari/537.36" version="24.9.1">
  <diagram name="PÃ¡gina-1" id="AlnsNyq1vR_H65DkMhtp">
    <mxGraphModel dx="1304" dy="321" grid="0" gridSize="10" guides="1" tooltips="1" connect="1" arrows="1" fold="1" page="0" pageScale="1" pageWidth="827" pageHeight="1169" math="0" shadow="0">
      <root>
        <mxCell id="0" />
        <mxCell id="1" parent="0" />
        <mxCell id="-mm5XF8lnovWtMR6PmHI-34" value="" style="rounded=0;whiteSpace=wrap;html=1;strokeColor=#D79B00;strokeWidth=2;" vertex="1" parent="1">
          <mxGeometry x="34" y="83" width="183" height="101" as="geometry" />
        </mxCell>
        <mxCell id="-mm5XF8lnovWtMR6PmHI-6" value="Image Base&amp;nbsp;&lt;div&gt;(for example an image of 512x512)&lt;/div&gt;" style="rounded=1;whiteSpace=wrap;html=1;fillColor=default;strokeColor=#6c8ebf;strokeWidth=2;" vertex="1" parent="1">
          <mxGeometry x="-516" y="249" width="99" height="97" as="geometry" />
        </mxCell>
        <mxCell id="-mm5XF8lnovWtMR6PmHI-28" style="edgeStyle=none;curved=1;rounded=0;orthogonalLoop=1;jettySize=auto;html=1;exitX=1;exitY=0.5;exitDx=0;exitDy=0;entryX=0;entryY=0.5;entryDx=0;entryDy=0;fontSize=12;startSize=8;endSize=8;fillColor=#dae8fc;strokeColor=#6c8ebf;strokeWidth=2;" edge="1" parent="1" source="-mm5XF8lnovWtMR6PmHI-8" target="-mm5XF8lnovWtMR6PmHI-16">
          <mxGeometry relative="1" as="geometry" />
        </mxCell>
        <mxCell id="-mm5XF8lnovWtMR6PmHI-29" style="edgeStyle=none;curved=1;rounded=0;orthogonalLoop=1;jettySize=auto;html=1;exitX=1;exitY=0.5;exitDx=0;exitDy=0;entryX=0;entryY=0.5;entryDx=0;entryDy=0;fontSize=12;startSize=8;endSize=8;fillColor=#dae8fc;strokeColor=#6c8ebf;strokeWidth=2;" edge="1" parent="1" source="-mm5XF8lnovWtMR6PmHI-8" target="-mm5XF8lnovWtMR6PmHI-11">
          <mxGeometry relative="1" as="geometry" />
        </mxCell>
        <mxCell id="-mm5XF8lnovWtMR6PmHI-55" style="edgeStyle=none;curved=1;rounded=0;orthogonalLoop=1;jettySize=auto;html=1;exitX=1;exitY=0.5;exitDx=0;exitDy=0;entryX=0;entryY=0.5;entryDx=0;entryDy=0;fontSize=12;startSize=8;endSize=8;fillColor=#dae8fc;strokeColor=#6c8ebf;strokeWidth=2;" edge="1" parent="1" source="-mm5XF8lnovWtMR6PmHI-8" target="-mm5XF8lnovWtMR6PmHI-53">
          <mxGeometry relative="1" as="geometry" />
        </mxCell>
        <mxCell id="-mm5XF8lnovWtMR6PmHI-8" value="Icon Maker" style="rounded=0;whiteSpace=wrap;html=1;fillColor=#dae8fc;strokeColor=#6c8ebf;strokeWidth=2;" vertex="1" parent="1">
          <mxGeometry x="-311" y="241" width="120" height="113" as="geometry" />
        </mxCell>
        <mxCell id="-mm5XF8lnovWtMR6PmHI-9" value="" style="endArrow=classic;html=1;rounded=0;fontSize=12;startSize=8;endSize=8;curved=1;exitX=1;exitY=0.5;exitDx=0;exitDy=0;strokeWidth=2;fillColor=#dae8fc;strokeColor=#6c8ebf;" edge="1" parent="1" source="-mm5XF8lnovWtMR6PmHI-6" target="-mm5XF8lnovWtMR6PmHI-8">
          <mxGeometry width="50" height="50" relative="1" as="geometry">
            <mxPoint x="-175" y="228" as="sourcePoint" />
            <mxPoint x="-125" y="178" as="targetPoint" />
          </mxGeometry>
        </mxCell>
        <mxCell id="-mm5XF8lnovWtMR6PmHI-30" style="edgeStyle=none;curved=1;rounded=0;orthogonalLoop=1;jettySize=auto;html=1;exitX=1;exitY=0.5;exitDx=0;exitDy=0;entryX=0;entryY=0.5;entryDx=0;entryDy=0;fontSize=12;startSize=8;endSize=8;strokeWidth=2;fillColor=#dae8fc;strokeColor=#6c8ebf;endArrow=none;endFill=0;" edge="1" parent="1" source="-mm5XF8lnovWtMR6PmHI-11" target="-mm5XF8lnovWtMR6PmHI-25">
          <mxGeometry relative="1" as="geometry" />
        </mxCell>
        <mxCell id="-mm5XF8lnovWtMR6PmHI-11" value="Temp Image for ICO&lt;br&gt;(16x16)" style="rounded=1;whiteSpace=wrap;html=1;container=0;fillColor=default;strokeColor=#6c8ebf;strokeWidth=2;" vertex="1" parent="1">
          <mxGeometry x="-102.5" y="168" width="64" height="62" as="geometry" />
        </mxCell>
        <mxCell id="-mm5XF8lnovWtMR6PmHI-31" style="edgeStyle=none;curved=1;rounded=0;orthogonalLoop=1;jettySize=auto;html=1;exitX=1;exitY=0.5;exitDx=0;exitDy=0;entryX=0;entryY=0.5;entryDx=0;entryDy=0;fontSize=12;startSize=8;endSize=8;fillColor=#dae8fc;strokeColor=#6c8ebf;strokeWidth=2;endArrow=none;endFill=0;" edge="1" parent="1" source="-mm5XF8lnovWtMR6PmHI-16" target="-mm5XF8lnovWtMR6PmHI-25">
          <mxGeometry relative="1" as="geometry" />
        </mxCell>
        <mxCell id="-mm5XF8lnovWtMR6PmHI-16" value="Temp Image for ICO&lt;br&gt;(256x256)" style="rounded=1;whiteSpace=wrap;html=1;container=0;fillColor=default;strokeColor=#6c8ebf;strokeWidth=2;" vertex="1" parent="1">
          <mxGeometry x="-115" y="365" width="97" height="89" as="geometry" />
        </mxCell>
        <mxCell id="-mm5XF8lnovWtMR6PmHI-45" style="edgeStyle=none;curved=1;rounded=0;orthogonalLoop=1;jettySize=auto;html=1;exitX=1;exitY=0.5;exitDx=0;exitDy=0;entryX=0;entryY=0.5;entryDx=0;entryDy=0;fontSize=12;startSize=8;endSize=8;fillColor=#dae8fc;strokeColor=#6c8ebf;strokeWidth=2;" edge="1" parent="1" source="-mm5XF8lnovWtMR6PmHI-25" target="-mm5XF8lnovWtMR6PmHI-43">
          <mxGeometry relative="1" as="geometry" />
        </mxCell>
        <mxCell id="-mm5XF8lnovWtMR6PmHI-25" value="Routine to hide the information using an M method and form the icon" style="rounded=0;whiteSpace=wrap;html=1;fillColor=#dae8fc;strokeColor=#6c8ebf;strokeWidth=2;" vertex="1" parent="1">
          <mxGeometry x="68" y="241" width="120" height="113" as="geometry" />
        </mxCell>
        <mxCell id="-mm5XF8lnovWtMR6PmHI-1" value="" style="html=1;verticalLabelPosition=bottom;align=center;labelBackgroundColor=#ffffff;verticalAlign=top;strokeWidth=2;strokeColor=#000000;shadow=0;dashed=0;shape=mxgraph.ios7.icons.documents;" vertex="1" parent="1">
          <mxGeometry x="58" y="99" width="56" height="69" as="geometry" />
        </mxCell>
        <mxCell id="-mm5XF8lnovWtMR6PmHI-3" value="" style="shape=image;html=1;verticalAlign=top;verticalLabelPosition=bottom;labelBackgroundColor=#ffffff;imageAspect=0;aspect=fixed;image=https://cdn1.iconfinder.com/data/icons/material-core/20/settings-128.png" vertex="1" parent="1">
          <mxGeometry x="64" y="123.75" width="19.5" height="19.5" as="geometry" />
        </mxCell>
        <mxCell id="-mm5XF8lnovWtMR6PmHI-4" value="" style="shape=image;html=1;verticalAlign=top;verticalLabelPosition=bottom;labelBackgroundColor=#ffffff;imageAspect=0;aspect=fixed;image=https://cdn1.iconfinder.com/data/icons/material-core/20/settings-128.png" vertex="1" parent="1">
          <mxGeometry x="79.5" y="140" width="13" height="13" as="geometry" />
        </mxCell>
        <mxCell id="-mm5XF8lnovWtMR6PmHI-5" value="Information to be hidden" style="text;whiteSpace=wrap;" vertex="1" parent="1">
          <mxGeometry x="121" y="114.83" width="71.67" height="38.17" as="geometry" />
        </mxCell>
        <mxCell id="-mm5XF8lnovWtMR6PmHI-35" style="edgeStyle=none;curved=1;rounded=0;orthogonalLoop=1;jettySize=auto;html=1;exitX=0.5;exitY=1;exitDx=0;exitDy=0;fontSize=12;startSize=8;endSize=8;fillColor=#dae8fc;strokeColor=#6c8ebf;strokeWidth=2;" edge="1" parent="1" source="-mm5XF8lnovWtMR6PmHI-34" target="-mm5XF8lnovWtMR6PmHI-25">
          <mxGeometry relative="1" as="geometry" />
        </mxCell>
        <mxCell id="-mm5XF8lnovWtMR6PmHI-44" value="" style="group;fillColor=default;strokeWidth=2;" vertex="1" connectable="0" parent="1">
          <mxGeometry x="283" y="247" width="101" height="101" as="geometry" />
        </mxCell>
        <mxCell id="-mm5XF8lnovWtMR6PmHI-43" value="" style="rounded=0;whiteSpace=wrap;html=1;fillColor=default;strokeColor=#D79B00;strokeWidth=2;" vertex="1" parent="-mm5XF8lnovWtMR6PmHI-44">
          <mxGeometry width="101" height="101" as="geometry" />
        </mxCell>
        <mxCell id="-mm5XF8lnovWtMR6PmHI-36" value="&lt;b&gt;ICO FILE&lt;/b&gt;" style="html=1;verticalLabelPosition=bottom;align=center;labelBackgroundColor=#ffffff;verticalAlign=top;strokeWidth=2;strokeColor=#000000;shadow=0;dashed=0;shape=mxgraph.ios7.icons.document;" vertex="1" parent="-mm5XF8lnovWtMR6PmHI-44">
          <mxGeometry x="30" y="15.129999999999995" width="45" height="58.75" as="geometry" />
        </mxCell>
        <mxCell id="-mm5XF8lnovWtMR6PmHI-46" value="&lt;b&gt;&lt;font style=&quot;font-size: 19px;&quot;&gt;&lt;i&gt;ICO&lt;/i&gt;&lt;/font&gt;&lt;/b&gt;" style="text;html=1;align=center;verticalAlign=middle;whiteSpace=wrap;rounded=0;fontSize=16;" vertex="1" parent="-mm5XF8lnovWtMR6PmHI-44">
          <mxGeometry x="22.5" y="33" width="60" height="30" as="geometry" />
        </mxCell>
        <mxCell id="-mm5XF8lnovWtMR6PmHI-56" style="edgeStyle=none;curved=1;rounded=0;orthogonalLoop=1;jettySize=auto;html=1;exitX=1;exitY=0.5;exitDx=0;exitDy=0;entryX=0;entryY=0.5;entryDx=0;entryDy=0;fontSize=12;startSize=8;endSize=8;endArrow=oval;endFill=1;strokeWidth=2;fillColor=#dae8fc;strokeColor=#6c8ebf;" edge="1" parent="1" source="-mm5XF8lnovWtMR6PmHI-53" target="-mm5XF8lnovWtMR6PmHI-25">
          <mxGeometry relative="1" as="geometry" />
        </mxCell>
        <mxCell id="-mm5XF8lnovWtMR6PmHI-53" value="Remaining resolutions" style="rounded=1;whiteSpace=wrap;html=1;container=0;fillColor=default;strokeColor=#6c8ebf;strokeWidth=2;" vertex="1" parent="1">
          <mxGeometry x="-102.5" y="266.5" width="64" height="62" as="geometry" />
        </mxCell>
      </root>
    </mxGraphModel>
  </diagram>
</mxfile>
